<?xml version="1.0" encoding="UTF-8"?>
<svg viewBox="0 0 480 260" xmlns="http://www.w3.org/2000/svg" xmlns:xlink="http://www.w3.org/1999/xlink">
 <defs>
  <filter id="i" x="-.06818" y="-.34454" width="1.1364" height="1.6891">
   <feGaussianBlur stdDeviation="13.63167"/>
  </filter>
  <linearGradient id="b">
   <stop stop-color="#ffb200" offset="0"/>
   <stop stop-color="#ff5200" offset="1"/>
  </linearGradient>
  <linearGradient id="a">
   <stop stop-color="#00aad4" offset="0"/>
   <stop stop-color="#0085a6" stop-opacity=".99107" offset="1"/>
  </linearGradient>
  <linearGradient id="h">
   <stop stop-color="#009bc2" offset="0"/>
   <stop stop-color="#0cf" offset="1"/>
  </linearGradient>
  <linearGradient id="g" x1="175.7" x2="171.34" y1="779.63" y2="1052.5" gradientUnits="userSpaceOnUse" xlink:href="#b"/>
  <linearGradient id="f" x1="335.64" x2="-25.643" y1="761.42" y2="428.56" gradientUnits="userSpaceOnUse" xlink:href="#h"/>
  <linearGradient id="m" x1="-112.14" x2="43.958" gradientUnits="userSpaceOnUse" xlink:href="#b"/>
  <linearGradient id="e" x1="184.8" x2="290.97" y1="753.39" y2="795.53" gradientUnits="userSpaceOnUse" xlink:href="#a"/>
  <linearGradient id="d" x1="91.005" x2="101.95" y1="511.15" y2="559.9" gradientUnits="userSpaceOnUse" xlink:href="#h"/>
  <linearGradient id="l" x1=".36942" x2="81.866" gradientUnits="userSpaceOnUse" xlink:href="#a"/>
  <linearGradient id="c" x1="23.108" x2="77.777" gradientTransform="matrix(.48511 .64249 -.64249 .48511 318.52 176.58)" gradientUnits="userSpaceOnUse" xlink:href="#a"/>
  <linearGradient id="k" x1="16.958" x2="80.992" gradientUnits="userSpaceOnUse" xlink:href="#a"/>
  <linearGradient id="j" x1="-139.9" x2="34.845" gradientUnits="userSpaceOnUse" xlink:href="#b"/>
 </defs>
 <g transform="matrix(.31968 0 0 .31968 101.61 -105.23)">
  <g transform="matrix(.77641 0 0 .77641 42.236 204.28)">
   <path transform="matrix(1.1116 0 0 1.0714 8.6788 -67.869)" d="m402.04 1084.7c0 26.221-107.41 47.477-239.91 47.477s-239.91-21.256-239.91-47.477 107.41-47.477 239.91-47.477 239.91 21.256 239.91 47.477z" fill="#93aca7" filter="url(#i)" opacity=".63158"/>
   <path d="m136.88 872.97a10.001 10.001 0 0 0 -8.125 4.5625s-54.197 83.015-5.0938 171.34c-12.985 0.4866-30.095 1.117-48.969 1.7188-17.217 0.5489-34.644 1.0545-48.125 1.2812-6.7405 0.1133-12.48 0.1643-16.656 0.125-2.0879-0.02-3.8061-0.068-4.9375-0.125s-2.4032-0.4595-0.46875 0.094a10.001 10.001 0 1 0 -5.5 19.219c2.793 0.7984 3.3752 0.5762 4.9688 0.6563s3.5025 0.1351 5.75 0.1562c4.4951 0.042 10.351-0.01 17.188-0.125 4.7389-0.08 10.042-0.2082 15.531-0.3438-5.0954 1.1736-10.013 2.3031-14.406 3.2813-6.5803 1.4651-12.214 2.6684-16.312 3.4687-2.0493 0.4004-3.724 0.7034-4.8438 0.875s-2.4435 0.035-0.4375 0.1876a10.001 10.001 0 1 0 -1.5312 19.937c2.8963 0.2211 3.4228-0.102 5-0.3437s3.4503-0.6004 5.6562-1.0313c4.4119-0.8615 10.139-2.0766 16.812-3.5624 10.358-2.3064 23.062-5.2786 36.031-8.3438-11.654 6.0281-23.063 11.897-32.312 16.531-6.0272 3.02-11.187 5.5716-14.969 7.3438-1.8906 0.8861-3.4555 1.5615-4.5 2s-2.3582 0.6203-0.375 0.2812a10.003 10.003 0 1 0 3.375 19.719c2.8633-0.4893 3.2788-0.9448 4.75-1.5625s3.2148-1.39 5.25-2.3437c4.0704-1.9078 9.3248-4.4996 15.438-7.5626 12.225-6.1256 27.795-14.122 43.125-22.094 25.59-13.308 46.666-24.464 54.219-28.469a10.001 10.001 0 0 0 8.5938 -5.0313 10.001 10.001 0 0 0 -2.375 -15.969 10.001 10.001 0 0 0 -0.15625 -0.094 10.001 10.001 0 0 0 -0.15625 -0.062 10.001 10.001 0 0 0 -1.9688 -0.7813c-53.01-82.266-0.9375-159.31-0.9375-159.31a10.001 10.001 0 0 0 -8.5312 -15.625zm98.75 0a10.001 10.001 0 0 0 -8.25 15.625s52.073 77.046-0.9375 159.31a10.001 10.001 0 0 0 -2.7812 1.25 10.001 10.001 0 0 0 -2.0312 15.406 10.001 10.001 0 0 0 1.625 1.5625 10.005 10.005 0 0 0 6.4062 3.3125c6.865 3.6414 28.761 15.246 54.969 28.875 15.33 7.9722 30.868 15.968 43.094 22.094 6.1127 3.0629 11.398 5.6547 15.469 7.5626 2.0352 0.9538 3.7476 1.726 5.2188 2.3437s1.9179 1.0732 4.7812 1.5625a10.003 10.003 0 1 0 3.375 -19.719c1.9832 0.339 0.63824 0.1573-0.40625-0.2812s-2.5781-1.1139-4.4688-2c-3.7813-1.7722-8.9728-4.3237-15-7.3438-9.2492-4.6343-20.659-10.503-32.312-16.531 12.97 3.0652 25.673 6.0374 36.031 8.3438 6.6737 1.4858 12.432 2.7008 16.844 3.5624 2.206 0.431 4.0478 0.7896 5.625 1.0313s2.1037 0.5648 5 0.3437a10.001 10.001 0 1 0 -1.5 -19.937c2.006-0.1531 0.651-0.016-0.46875-0.1876s-2.7945-0.4746-4.8438-0.875c-4.0986-0.8004-9.7322-2.0036-16.312-3.4687-4.3932-0.9782-9.3155-2.1077-14.406-3.2813 5.5003 0.1359 10.815 0.264 15.562 0.3438 6.8362 0.1149 12.692 0.1673 17.188 0.125 2.2475-0.021 4.1564-0.076 5.75-0.1562s2.1758 0.1421 4.9688-0.6563a10.001 10.001 0 0 0 -4.8438 -19.406c0.0382-0.02-0.43165 0.057-1.1562 0.094-1.1314 0.057-2.8184 0.1054-4.9062 0.125-4.1758 0.039-9.947-0.012-16.688-0.125-13.481-0.2267-30.908-0.7323-48.125-1.2812-18.849-0.601-35.964-1.2011-48.938-1.6876 49.123-88.337-5.125-171.37-5.125-171.37a10.001 10.001 0 0 0 -8.4062 -4.5625z" fill="url(#g)"/>
   <path d="m118.12 898.48-1.6964 4.1964s6.4286 5.6696 19.196 4.4196l2.7679-5.8036z" fill="#d66c0b"/>
   <path d="m255.45 900.44 1.6964 4.1964s-6.4286 5.6696-19.196 4.4196l-2.7679-5.8036z" fill="#d66c0b"/>
  </g>
  <path d="m-67.143 586.57s-2.8571-167.53 160-167.53c125.05 0 127.97 120.46 129.05 189.34 31.279 135.03 207.78 18.526 228.09-13.634 0 0 45.714 311.91-258.57 311.91s-258.57-320.08-258.57-320.08z" fill="url(#f)"/>
  <g transform="translate(-28.284)">
   <path d="m-112.14 508.08s97.143-23.571 155.71 67.857c0 0 11.429 69.286-90 101.43 0 0 23.571-44.286 20.714-80 0 0-24.286-56.429-86.429-89.286z" fill="url(#m)"/>
   <path d="m-90.468 515.64s44.935-5.0019 107.7 66.694c0 0 0.74863 50.85-54.11 87.216 0 0 19.223-40.263 16.893-72.734 0 0-19.805-51.303-70.483-81.176z" fill="#a40"/>
   <path d="m-3.0625 561.09c-7.0127 5.0213-11.594 13.248-11.594 22.531 0 14.65 11.41 26.62 25.812 27.594 6.2413-16.692 6.0625-28.875 6.0625-28.875-7.0033-7.9998-13.76-15.046-20.281-21.25z" fill="#520"/>
   <path d="m2.6562 592.34c-2.7598 0.10242-5.5625 0.67969-8.375 1.8125-25.714 10.357-20 61.062-20 61.062s7.2806-13.513 22.562-17.5c11.89-16.38 16.854-32.127 18.906-42.625-4.1771-1.837-8.5854-2.9173-13.094-2.75z" fill="#f00"/>
  </g>
  <path d="m174.54 814.27s108.99 70.049 187.76-22.634c0 0-122.93 5.8828-137.42-64.12z" fill="#2c89a0"/>
  <path d="m171.73 813.76s116.66 64.696 187.32-34.32c0 0-115.01 5.6337-135.37-62.893z" fill="url(#e)"/>
  <path transform="matrix(1.6477 0 0 1.6477 -64.937 -346.14)" d="m123.24 534.41c0 12.692-10.289 22.981-22.981 22.981s-22.981-10.289-22.981-22.981 10.289-22.981 22.981-22.981 22.981 10.289 22.981 22.981z" fill="url(#d)"/>
  <path transform="matrix(1.321 0 0 1.321 -32.183 -171.55)" d="m123.24 534.41c0 12.692-10.289 22.981-22.981 22.981s-22.981-10.289-22.981-22.981 10.289-22.981 22.981-22.981 22.981 10.289 22.981 22.981z"/>
  <path transform="matrix(.52556 0 0 .52556 54.748 239.18)" d="m123.24 534.41c0 12.692-10.289 22.981-22.981 22.981s-22.981-10.289-22.981-22.981 10.289-22.981 22.981-22.981 22.981 10.289 22.981 22.981z" fill="#fff"/>
  <path transform="matrix(.3409 0 0 .3409 85.992 350.59)" d="m123.24 534.41c0 12.692-10.289 22.981-22.981 22.981s-22.981-10.289-22.981-22.981 10.289-22.981 22.981-22.981 22.981 10.289 22.981 22.981z" fill="#fff"/>
  <path d="m10.345 376.87s61.365 22.965 70.776 62.118c0 0-1.8824-50.823-33.882-77.176s-61.741 2.6353-36.894 15.059z" fill="url(#l)"/>
  <path d="m81.944 385.27s10.072 33.92-3.7398 50.717c0 0 21.291-17.35 22.236-39.717s-21.227-25.752-18.496-11z" fill="url(#c)"/>
  <g transform="translate(684.29)">
   <g transform="matrix(.77641 0 0 .77641 42.236 204.28)">
    <path transform="matrix(1.1116 0 0 1.0714 8.6788 -67.869)" d="m402.04 1084.7c0 26.221-107.41 47.477-239.91 47.477s-239.91-21.256-239.91-47.477 107.41-47.477 239.91-47.477 239.91 21.256 239.91 47.477z" fill="#93aca7" filter="url(#i)" opacity=".63158"/>
    <path d="m136.88 872.97a10.001 10.001 0 0 0 -8.125 4.5625s-54.197 83.015-5.0938 171.34c-12.985 0.4866-30.095 1.117-48.969 1.7188-17.217 0.5489-34.644 1.0545-48.125 1.2812-6.7405 0.1133-12.48 0.1643-16.656 0.125-2.0879-0.02-3.8061-0.068-4.9375-0.125s-2.4032-0.4595-0.46875 0.094a10.001 10.001 0 1 0 -5.5 19.219c2.793 0.7984 3.3752 0.5762 4.9688 0.6563s3.5025 0.1351 5.75 0.1562c4.4951 0.042 10.351-0.01 17.188-0.125 4.7389-0.08 10.042-0.2082 15.531-0.3438-5.0954 1.1736-10.013 2.3031-14.406 3.2813-6.5803 1.4651-12.214 2.6684-16.312 3.4687-2.0493 0.4004-3.724 0.7034-4.8438 0.875s-2.4435 0.035-0.4375 0.1876a10.001 10.001 0 1 0 -1.5312 19.937c2.8963 0.2211 3.4228-0.102 5-0.3437s3.4503-0.6004 5.6562-1.0313c4.4119-0.8615 10.139-2.0766 16.812-3.5624 10.358-2.3064 23.062-5.2786 36.031-8.3438-11.654 6.0281-23.063 11.897-32.312 16.531-6.0272 3.02-11.187 5.5716-14.969 7.3438-1.8906 0.8861-3.4555 1.5615-4.5 2s-2.3582 0.6203-0.375 0.2812a10.003 10.003 0 1 0 3.375 19.719c2.8633-0.4893 3.2788-0.9448 4.75-1.5625s3.2148-1.39 5.25-2.3437c4.0704-1.9078 9.3248-4.4996 15.438-7.5626 12.225-6.1256 27.795-14.122 43.125-22.094 25.59-13.308 46.666-24.464 54.219-28.469a10.001 10.001 0 0 0 8.5938 -5.0313 10.001 10.001 0 0 0 -2.375 -15.969 10.001 10.001 0 0 0 -0.15625 -0.094 10.001 10.001 0 0 0 -0.15625 -0.062 10.001 10.001 0 0 0 -1.9688 -0.7813c-53.01-82.266-0.9375-159.31-0.9375-159.31a10.001 10.001 0 0 0 -8.5312 -15.625zm98.75 0a10.001 10.001 0 0 0 -8.25 15.625s52.073 77.046-0.9375 159.31a10.001 10.001 0 0 0 -2.7812 1.25 10.001 10.001 0 0 0 -2.0312 15.406 10.001 10.001 0 0 0 1.625 1.5625 10.005 10.005 0 0 0 6.4062 3.3125c6.865 3.6414 28.761 15.246 54.969 28.875 15.33 7.9722 30.868 15.968 43.094 22.094 6.1127 3.0629 11.398 5.6547 15.469 7.5626 2.0352 0.9538 3.7476 1.726 5.2188 2.3437s1.9179 1.0732 4.7812 1.5625a10.003 10.003 0 1 0 3.375 -19.719c1.9832 0.339 0.63824 0.1573-0.40625-0.2812s-2.5781-1.1139-4.4688-2c-3.7813-1.7722-8.9728-4.3237-15-7.3438-9.2492-4.6343-20.659-10.503-32.312-16.531 12.97 3.0652 25.673 6.0374 36.031 8.3438 6.6737 1.4858 12.432 2.7008 16.844 3.5624 2.206 0.431 4.0478 0.7896 5.625 1.0313s2.1037 0.5648 5 0.3437a10.001 10.001 0 1 0 -1.5 -19.937c2.006-0.1531 0.651-0.016-0.46875-0.1876s-2.7945-0.4746-4.8438-0.875c-4.0986-0.8004-9.7322-2.0036-16.312-3.4687-4.3932-0.9782-9.3155-2.1077-14.406-3.2813 5.5003 0.1359 10.815 0.264 15.562 0.3438 6.8362 0.1149 12.692 0.1673 17.188 0.125 2.2475-0.021 4.1564-0.076 5.75-0.1562s2.1758 0.1421 4.9688-0.6563a10.001 10.001 0 0 0 -4.8438 -19.406c0.0382-0.02-0.43165 0.057-1.1562 0.094-1.1314 0.057-2.8184 0.1054-4.9062 0.125-4.1758 0.039-9.947-0.012-16.688-0.125-13.481-0.2267-30.908-0.7323-48.125-1.2812-18.849-0.601-35.964-1.2011-48.938-1.6876 49.123-88.337-5.125-171.37-5.125-171.37a10.001 10.001 0 0 0 -8.4062 -4.5625z" fill="url(#g)"/>
    <path d="m118.12 898.48-1.6964 4.1964s6.4286 5.6696 19.196 4.4196l2.7679-5.8036z" fill="#d66c0b"/>
    <path d="m255.45 900.44 1.6964 4.1964s-6.4286 5.6696-19.196 4.4196l-2.7679-5.8036z" fill="#d66c0b"/>
   </g>
   <path d="m-67.143 586.57s-2.8571-167.53 160-167.53c125.05 0 127.97 120.46 129.05 189.34 31.279 135.03 207.78 18.526 228.09-13.634 0 0 45.714 311.91-258.57 311.91s-258.57-320.08-258.57-320.08z" fill="url(#f)"/>
   <path d="m174.54 814.27s108.99 70.049 187.76-22.634c0 0-122.93 5.8828-137.42-64.12z" fill="#2c89a0"/>
   <path d="m171.73 813.76s116.66 64.696 187.32-34.32c0 0-115.01 5.6337-135.37-62.893z" fill="url(#e)"/>
   <path transform="matrix(1.6477 0 0 1.6477 -64.937 -346.14)" d="m123.24 534.41c0 12.692-10.289 22.981-22.981 22.981s-22.981-10.289-22.981-22.981 10.289-22.981 22.981-22.981 22.981 10.289 22.981 22.981z" fill="url(#d)"/>
   <path transform="matrix(1.321 0 0 1.321 -32.183 -171.55)" d="m123.24 534.41c0 12.692-10.289 22.981-22.981 22.981s-22.981-10.289-22.981-22.981 10.289-22.981 22.981-22.981 22.981 10.289 22.981 22.981z"/>
   <path transform="matrix(.52556 0 0 .52556 54.748 239.18)" d="m123.24 534.41c0 12.692-10.289 22.981-22.981 22.981s-22.981-10.289-22.981-22.981 10.289-22.981 22.981-22.981 22.981 10.289 22.981 22.981z" fill="#fff"/>
   <path transform="matrix(.3409 0 0 .3409 85.992 350.59)" d="m123.24 534.41c0 12.692-10.289 22.981-22.981 22.981s-22.981-10.289-22.981-22.981 10.289-22.981 22.981-22.981 22.981 10.289 22.981 22.981z" fill="#fff"/>
   <path d="m24.796 388.62s48.216 18.044 55.611 48.808c0 0-1.479-39.934-26.622-60.64s-48.512 2.0706-28.989 11.832z" fill="url(#k)"/>
   <path d="m81.944 385.27s10.072 33.92-3.7398 50.717c0 0 21.291-17.35 22.236-39.717s-21.227-25.752-18.496-11z" fill="url(#c)"/>
  </g>
  <g transform="translate(680.84 -157.58)">
   <path d="m34.345 744.27s-91.924-60.609-173.75-4.0406l42.426 10.102s50.508 81.822 131.32-6.0609z" fill="url(#j)"/>
   <path d="m34.094 744.28s-30.55 5.2889-53.531 4.5312c-22.251-0.73355-54.931-8.3543-78.531 1.25l1 0.25s0.77734 1.2576 2.2812 3.2812c6.632-2.6809 20.05-5.307 45.938-1.5 42.931 6.3134 82.844-7.8125 82.844-7.8125z" fill="#803300"/>
  </g>
  <g transform="matrix(.14411 .04424 -.05863 .191 -134.62 328.88)" fill="#00222b">
   <path d="m-10.733 1234.2h465.93a3.4093 3.4093 0 0 1 3.4093 3.4093v116.42a3.4093 3.4093 0 0 1 -3.4093 3.4093h-465.93a3.4093 3.4093 0 0 1 -3.4093 -3.4093v-116.42a3.4093 3.4093 0 0 1 3.4093 -3.4093"/>
   <path transform="matrix(.64623 .76314 -.76314 .64623 1256.8 700.05)" d="m-105.06 1691.8c0 60.81-39.799 110.11-88.893 110.11s-88.893-49.296-88.893-110.11 39.799-110.11 88.893-110.11 88.893 49.296 88.893 110.11z"/>
   <path d="m16.794 1308.1-31.906 2.7188s7.1255 84.198-6.5 175.66c-6.8128 45.729-18.898 93.053-38.875 131.81s-47.2 68.545-85.188 82.781l11.219 29.938c47.092-17.648 80.012-54.612 102.41-98.062s34.92-93.808 42.062-141.75c14.285-95.884 6.7812-183.09 6.7812-183.09z"/>
   <g transform="translate(440.43 16.162)">
    <path transform="matrix(.64623 .76314 -.76314 .64623 1256.8 700.05)" d="m-105.06 1691.8c0 60.81-39.799 110.11-88.893 110.11s-88.893-49.296-88.893-110.11 39.799-110.11 88.893-110.11 88.893 49.296 88.893 110.11z"/>
    <path d="m16.794 1308.1-31.906 2.7188s7.1255 84.198-6.5 175.66c-6.8128 45.729-18.898 93.053-38.875 131.81s-47.2 68.545-85.188 82.781l11.219 29.938c47.092-17.648 80.012-54.612 102.41-98.062s34.92-93.808 42.062-141.75c14.285-95.884 6.7812-183.09 6.7812-183.09z"/>
   </g>
  </g>
 </g>
</svg>
