<?xml version="1.0" encoding="UTF-8"?><svg id="Layer_2" xmlns="http://www.w3.org/2000/svg" viewBox="0 0 28.42 32.65"><defs><style>.cls-1{fill:#f9caea;}.cls-2{fill:#fff;}.cls-2,.cls-3,.cls-4{stroke-miterlimit:10;}.cls-2,.cls-4{stroke:#000;stroke-width:.25px;}.cls-3{fill:#514e4c;stroke:#0a0908;}.cls-4{fill:none;}</style></defs><g id="Layer_1-2"><g><path class="cls-3" d="M4.84,19.07c.23-.42-1.43,1.99-2.48,1.61-.42-.15,.34,1.4,.08,1.83-.18,.31-1.94-.83-1.78-.49,1.13,2.45-.56,5.63-.07,7.39,1.09,3.97,23.34,3.61,26.41-.96,1.57-2.34-.62-5.98,.02-8.29,.13-.48-1.33,.56-1.62,.21-.24-.29,.71-1.8,.39-1.72-1.34,.31-2.39-.34-2.39-.34"/><path class="cls-3" d="M24.49,4.47c.75-1.34-.01-3.75-.01-3.75-4.64-1.33-7.4,3.75-7.75,4.42-.91-.18-1.86-.28-2.84-.28-1.1,0-2.15,.12-3.15,.34C9.93,3.8,7.36-.02,3.27,1.09c0,0-.8,2.39-.06,3.75,0,0-2.3,2.44,.71,4.57-.69,1-.65,.87-1.3,1.87-.54,.84-.42,1.47-.42,1.68,0,.06-1.55,.91-1.55,.98,0,.29,2.02,.18,2.07,.46,.04,.26-1.44,1.04-1.36,1.29,.1,.36,1.78,.2,1.94,.54,1.56,3.28,5.72,5.63,10.6,5.63,5.69,0,10.26-1.84,11.02-5.98,.04-.19,2.12-.53,2.14-.73s-1.15-1.01-1.15-1.21c0-.14,1.46-.25,2.02-1,.19-.25-2.85-.63-2.91-.93-.06-.26,2.08-1.15,1.99-1.4s-2.4,.13-2.51-.11c-.23-.49-.52-.96-.86-1.4,3.2-2.1,.87-4.63,.87-4.63Z"/><g><circle class="cls-2" cx="17.95" cy="11.28" r="2.16"/><circle cx="17.95" cy="11.28" r="1.84"/></g><g><circle class="cls-2" cx="9.92" cy="11.28" r="2.16"/><circle cx="9.92" cy="11.28" r="1.84"/></g><path class="cls-1" d="M7.25,6.82l-2.31-2.14s-2.1,1.28-.46,3.65c0,0,1.55-1.88,2.77-1.51Z"/><path class="cls-1" d="M20.42,6.39l2.34-2.11s2.08,1.31,.41,3.65c0,0-1.53-1.9-2.75-1.55Z"/><polygon class="cls-1" points="12.97 13.35 14.75 13.35 13.86 14.52 12.97 13.35"/><path class="cls-4" d="M10.18,15.31s.62,1.31,1.89,1.12,1.78-.94,1.78-.94c0,0,.52,.94,1.73,.96s1.34-1.14,1.34-1.14"/></g></g></svg>